M48
; DRILL file {KiCad 8.0.6} date 2025-03-25T17:09:13+0100
; FORMAT={-:-/ absolute / inch / decimal}
; #@! TF.CreationDate,2025-03-25T17:09:13+01:00
; #@! TF.GenerationSoftware,Kicad,Pcbnew,8.0.6
; #@! TF.FileFunction,Plated,1,2,PTH
FMAT,2
INCH
; #@! TA.AperFunction,Plated,PTH,ViaDrill
T1C0.0118
; #@! TA.AperFunction,Plated,PTH,ViaDrill
T2C0.0157
; #@! TA.AperFunction,Plated,PTH,ComponentDrill
T3C0.0276
; #@! TA.AperFunction,Plated,PTH,ComponentDrill
T4C0.0315
; #@! TA.AperFunction,Plated,PTH,ComponentDrill
T5C0.0394
%
G90
G05
T1
X4.0039Y-2.7008
X4.0827Y-2.7008
X4.5827Y-2.689
X4.5827Y-2.8504
X4.7323Y-3.0945
X4.7441Y-2.7244
X4.7441Y-2.7756
X4.7598Y-2.6417
X4.8307Y-3.0945
X4.8425Y-2.7244
X4.8425Y-2.7835
X5.2913Y-2.7244
X5.2992Y-3.0945
X5.3858Y-2.7244
X5.3976Y-3.0945
X5.9882Y-2.7992
X6.0394Y-3.1024
X6.0472Y-2.7244
X6.1024Y-2.6063
X6.126Y-3.1024
X6.1378Y-2.7244
T2
X4.0236Y-2.5394
X4.4094Y-2.6417
X4.5709Y-3.0039
X5.0197Y-2.5315
X5.2205Y-2.4252
X5.4606Y-2.9016
X5.6614Y-2.5906
X5.9331Y-2.9291
T3
X3.963Y-3.5535
X4.063Y-3.6535
X4.163Y-3.5535
X4.6819Y-3.5591
X4.7819Y-3.6591
X4.8819Y-3.5591
X5.278Y-3.5457
X5.378Y-3.6457
X5.478Y-3.5457
X5.9496Y-3.5433
X6.0496Y-3.6433
X6.1496Y-3.5433
T4
X4.0339Y-2.4409
X4.0356Y-3.937
X4.1339Y-2.4409
X4.1356Y-3.937
X4.6419Y-3.937
X4.7049Y-2.4409
X4.7419Y-3.937
X4.8049Y-2.4409
X5.315Y-2.4252
X5.3937Y-3.9291
X5.415Y-2.4252
X5.4937Y-3.9291
X6.0041Y-2.4409
X6.026Y-3.937
X6.1041Y-2.4409
X6.126Y-3.937
T5
X3.6939Y-2.7854
X3.6939Y-2.8854
X4.3406Y-4.125
X4.3701Y-2.8937
X4.4406Y-4.125
X4.4701Y-2.8937
X5.6988Y-2.873
X5.7067Y-4.1407
X5.7988Y-2.873
X5.8067Y-4.1407
M30
