%TF.GenerationSoftware,KiCad,Pcbnew,8.0.6*%
%TF.CreationDate,2025-03-25T17:09:09+01:00*%
%TF.ProjectId,circuit,63697263-7569-4742-9e6b-696361645f70,rev?*%
%TF.SameCoordinates,Original*%
%TF.FileFunction,Legend,Top*%
%TF.FilePolarity,Positive*%
%FSLAX46Y46*%
G04 Gerber Fmt 4.6, Leading zero omitted, Abs format (unit mm)*
G04 Created by KiCad (PCBNEW 8.0.6) date 2025-03-25 17:09:09*
%MOMM*%
%LPD*%
G01*
G04 APERTURE LIST*
%ADD10C,0.150000*%
%ADD11C,0.120000*%
G04 APERTURE END LIST*
D10*
X154678571Y-65250057D02*
X154583333Y-65202438D01*
X154583333Y-65202438D02*
X154488095Y-65107200D01*
X154488095Y-65107200D02*
X154345238Y-64964342D01*
X154345238Y-64964342D02*
X154250000Y-64916723D01*
X154250000Y-64916723D02*
X154154762Y-64916723D01*
X154202381Y-65154819D02*
X154107143Y-65107200D01*
X154107143Y-65107200D02*
X154011905Y-65011961D01*
X154011905Y-65011961D02*
X153964286Y-64821485D01*
X153964286Y-64821485D02*
X153964286Y-64488152D01*
X153964286Y-64488152D02*
X154011905Y-64297676D01*
X154011905Y-64297676D02*
X154107143Y-64202438D01*
X154107143Y-64202438D02*
X154202381Y-64154819D01*
X154202381Y-64154819D02*
X154392857Y-64154819D01*
X154392857Y-64154819D02*
X154488095Y-64202438D01*
X154488095Y-64202438D02*
X154583333Y-64297676D01*
X154583333Y-64297676D02*
X154630952Y-64488152D01*
X154630952Y-64488152D02*
X154630952Y-64821485D01*
X154630952Y-64821485D02*
X154583333Y-65011961D01*
X154583333Y-65011961D02*
X154488095Y-65107200D01*
X154488095Y-65107200D02*
X154392857Y-65154819D01*
X154392857Y-65154819D02*
X154202381Y-65154819D01*
X155583333Y-65154819D02*
X155011905Y-65154819D01*
X155297619Y-65154819D02*
X155297619Y-64154819D01*
X155297619Y-64154819D02*
X155202381Y-64297676D01*
X155202381Y-64297676D02*
X155107143Y-64392914D01*
X155107143Y-64392914D02*
X155011905Y-64440533D01*
X156202381Y-64154819D02*
X156297619Y-64154819D01*
X156297619Y-64154819D02*
X156392857Y-64202438D01*
X156392857Y-64202438D02*
X156440476Y-64250057D01*
X156440476Y-64250057D02*
X156488095Y-64345295D01*
X156488095Y-64345295D02*
X156535714Y-64535771D01*
X156535714Y-64535771D02*
X156535714Y-64773866D01*
X156535714Y-64773866D02*
X156488095Y-64964342D01*
X156488095Y-64964342D02*
X156440476Y-65059580D01*
X156440476Y-65059580D02*
X156392857Y-65107200D01*
X156392857Y-65107200D02*
X156297619Y-65154819D01*
X156297619Y-65154819D02*
X156202381Y-65154819D01*
X156202381Y-65154819D02*
X156107143Y-65107200D01*
X156107143Y-65107200D02*
X156059524Y-65059580D01*
X156059524Y-65059580D02*
X156011905Y-64964342D01*
X156011905Y-64964342D02*
X155964286Y-64773866D01*
X155964286Y-64773866D02*
X155964286Y-64535771D01*
X155964286Y-64535771D02*
X156011905Y-64345295D01*
X156011905Y-64345295D02*
X156059524Y-64250057D01*
X156059524Y-64250057D02*
X156107143Y-64202438D01*
X156107143Y-64202438D02*
X156202381Y-64154819D01*
X154428571Y-74850057D02*
X154333333Y-74802438D01*
X154333333Y-74802438D02*
X154238095Y-74707200D01*
X154238095Y-74707200D02*
X154095238Y-74564342D01*
X154095238Y-74564342D02*
X154000000Y-74516723D01*
X154000000Y-74516723D02*
X153904762Y-74516723D01*
X153952381Y-74754819D02*
X153857143Y-74707200D01*
X153857143Y-74707200D02*
X153761905Y-74611961D01*
X153761905Y-74611961D02*
X153714286Y-74421485D01*
X153714286Y-74421485D02*
X153714286Y-74088152D01*
X153714286Y-74088152D02*
X153761905Y-73897676D01*
X153761905Y-73897676D02*
X153857143Y-73802438D01*
X153857143Y-73802438D02*
X153952381Y-73754819D01*
X153952381Y-73754819D02*
X154142857Y-73754819D01*
X154142857Y-73754819D02*
X154238095Y-73802438D01*
X154238095Y-73802438D02*
X154333333Y-73897676D01*
X154333333Y-73897676D02*
X154380952Y-74088152D01*
X154380952Y-74088152D02*
X154380952Y-74421485D01*
X154380952Y-74421485D02*
X154333333Y-74611961D01*
X154333333Y-74611961D02*
X154238095Y-74707200D01*
X154238095Y-74707200D02*
X154142857Y-74754819D01*
X154142857Y-74754819D02*
X153952381Y-74754819D01*
X155333333Y-74754819D02*
X154761905Y-74754819D01*
X155047619Y-74754819D02*
X155047619Y-73754819D01*
X155047619Y-73754819D02*
X154952381Y-73897676D01*
X154952381Y-73897676D02*
X154857143Y-73992914D01*
X154857143Y-73992914D02*
X154761905Y-74040533D01*
X156285714Y-74754819D02*
X155714286Y-74754819D01*
X156000000Y-74754819D02*
X156000000Y-73754819D01*
X156000000Y-73754819D02*
X155904762Y-73897676D01*
X155904762Y-73897676D02*
X155809524Y-73992914D01*
X155809524Y-73992914D02*
X155714286Y-74040533D01*
X136154761Y-74650057D02*
X136059523Y-74602438D01*
X136059523Y-74602438D02*
X135964285Y-74507200D01*
X135964285Y-74507200D02*
X135821428Y-74364342D01*
X135821428Y-74364342D02*
X135726190Y-74316723D01*
X135726190Y-74316723D02*
X135630952Y-74316723D01*
X135678571Y-74554819D02*
X135583333Y-74507200D01*
X135583333Y-74507200D02*
X135488095Y-74411961D01*
X135488095Y-74411961D02*
X135440476Y-74221485D01*
X135440476Y-74221485D02*
X135440476Y-73888152D01*
X135440476Y-73888152D02*
X135488095Y-73697676D01*
X135488095Y-73697676D02*
X135583333Y-73602438D01*
X135583333Y-73602438D02*
X135678571Y-73554819D01*
X135678571Y-73554819D02*
X135869047Y-73554819D01*
X135869047Y-73554819D02*
X135964285Y-73602438D01*
X135964285Y-73602438D02*
X136059523Y-73697676D01*
X136059523Y-73697676D02*
X136107142Y-73888152D01*
X136107142Y-73888152D02*
X136107142Y-74221485D01*
X136107142Y-74221485D02*
X136059523Y-74411961D01*
X136059523Y-74411961D02*
X135964285Y-74507200D01*
X135964285Y-74507200D02*
X135869047Y-74554819D01*
X135869047Y-74554819D02*
X135678571Y-74554819D01*
X136583333Y-74554819D02*
X136773809Y-74554819D01*
X136773809Y-74554819D02*
X136869047Y-74507200D01*
X136869047Y-74507200D02*
X136916666Y-74459580D01*
X136916666Y-74459580D02*
X137011904Y-74316723D01*
X137011904Y-74316723D02*
X137059523Y-74126247D01*
X137059523Y-74126247D02*
X137059523Y-73745295D01*
X137059523Y-73745295D02*
X137011904Y-73650057D01*
X137011904Y-73650057D02*
X136964285Y-73602438D01*
X136964285Y-73602438D02*
X136869047Y-73554819D01*
X136869047Y-73554819D02*
X136678571Y-73554819D01*
X136678571Y-73554819D02*
X136583333Y-73602438D01*
X136583333Y-73602438D02*
X136535714Y-73650057D01*
X136535714Y-73650057D02*
X136488095Y-73745295D01*
X136488095Y-73745295D02*
X136488095Y-73983390D01*
X136488095Y-73983390D02*
X136535714Y-74078628D01*
X136535714Y-74078628D02*
X136583333Y-74126247D01*
X136583333Y-74126247D02*
X136678571Y-74173866D01*
X136678571Y-74173866D02*
X136869047Y-74173866D01*
X136869047Y-74173866D02*
X136964285Y-74126247D01*
X136964285Y-74126247D02*
X137011904Y-74078628D01*
X137011904Y-74078628D02*
X137059523Y-73983390D01*
X135904761Y-65250057D02*
X135809523Y-65202438D01*
X135809523Y-65202438D02*
X135714285Y-65107200D01*
X135714285Y-65107200D02*
X135571428Y-64964342D01*
X135571428Y-64964342D02*
X135476190Y-64916723D01*
X135476190Y-64916723D02*
X135380952Y-64916723D01*
X135428571Y-65154819D02*
X135333333Y-65107200D01*
X135333333Y-65107200D02*
X135238095Y-65011961D01*
X135238095Y-65011961D02*
X135190476Y-64821485D01*
X135190476Y-64821485D02*
X135190476Y-64488152D01*
X135190476Y-64488152D02*
X135238095Y-64297676D01*
X135238095Y-64297676D02*
X135333333Y-64202438D01*
X135333333Y-64202438D02*
X135428571Y-64154819D01*
X135428571Y-64154819D02*
X135619047Y-64154819D01*
X135619047Y-64154819D02*
X135714285Y-64202438D01*
X135714285Y-64202438D02*
X135809523Y-64297676D01*
X135809523Y-64297676D02*
X135857142Y-64488152D01*
X135857142Y-64488152D02*
X135857142Y-64821485D01*
X135857142Y-64821485D02*
X135809523Y-65011961D01*
X135809523Y-65011961D02*
X135714285Y-65107200D01*
X135714285Y-65107200D02*
X135619047Y-65154819D01*
X135619047Y-65154819D02*
X135428571Y-65154819D01*
X136428571Y-64583390D02*
X136333333Y-64535771D01*
X136333333Y-64535771D02*
X136285714Y-64488152D01*
X136285714Y-64488152D02*
X136238095Y-64392914D01*
X136238095Y-64392914D02*
X136238095Y-64345295D01*
X136238095Y-64345295D02*
X136285714Y-64250057D01*
X136285714Y-64250057D02*
X136333333Y-64202438D01*
X136333333Y-64202438D02*
X136428571Y-64154819D01*
X136428571Y-64154819D02*
X136619047Y-64154819D01*
X136619047Y-64154819D02*
X136714285Y-64202438D01*
X136714285Y-64202438D02*
X136761904Y-64250057D01*
X136761904Y-64250057D02*
X136809523Y-64345295D01*
X136809523Y-64345295D02*
X136809523Y-64392914D01*
X136809523Y-64392914D02*
X136761904Y-64488152D01*
X136761904Y-64488152D02*
X136714285Y-64535771D01*
X136714285Y-64535771D02*
X136619047Y-64583390D01*
X136619047Y-64583390D02*
X136428571Y-64583390D01*
X136428571Y-64583390D02*
X136333333Y-64631009D01*
X136333333Y-64631009D02*
X136285714Y-64678628D01*
X136285714Y-64678628D02*
X136238095Y-64773866D01*
X136238095Y-64773866D02*
X136238095Y-64964342D01*
X136238095Y-64964342D02*
X136285714Y-65059580D01*
X136285714Y-65059580D02*
X136333333Y-65107200D01*
X136333333Y-65107200D02*
X136428571Y-65154819D01*
X136428571Y-65154819D02*
X136619047Y-65154819D01*
X136619047Y-65154819D02*
X136714285Y-65107200D01*
X136714285Y-65107200D02*
X136761904Y-65059580D01*
X136761904Y-65059580D02*
X136809523Y-64964342D01*
X136809523Y-64964342D02*
X136809523Y-64773866D01*
X136809523Y-64773866D02*
X136761904Y-64678628D01*
X136761904Y-64678628D02*
X136714285Y-64631009D01*
X136714285Y-64631009D02*
X136619047Y-64583390D01*
X121904761Y-74650057D02*
X121809523Y-74602438D01*
X121809523Y-74602438D02*
X121714285Y-74507200D01*
X121714285Y-74507200D02*
X121571428Y-74364342D01*
X121571428Y-74364342D02*
X121476190Y-74316723D01*
X121476190Y-74316723D02*
X121380952Y-74316723D01*
X121428571Y-74554819D02*
X121333333Y-74507200D01*
X121333333Y-74507200D02*
X121238095Y-74411961D01*
X121238095Y-74411961D02*
X121190476Y-74221485D01*
X121190476Y-74221485D02*
X121190476Y-73888152D01*
X121190476Y-73888152D02*
X121238095Y-73697676D01*
X121238095Y-73697676D02*
X121333333Y-73602438D01*
X121333333Y-73602438D02*
X121428571Y-73554819D01*
X121428571Y-73554819D02*
X121619047Y-73554819D01*
X121619047Y-73554819D02*
X121714285Y-73602438D01*
X121714285Y-73602438D02*
X121809523Y-73697676D01*
X121809523Y-73697676D02*
X121857142Y-73888152D01*
X121857142Y-73888152D02*
X121857142Y-74221485D01*
X121857142Y-74221485D02*
X121809523Y-74411961D01*
X121809523Y-74411961D02*
X121714285Y-74507200D01*
X121714285Y-74507200D02*
X121619047Y-74554819D01*
X121619047Y-74554819D02*
X121428571Y-74554819D01*
X122761904Y-73554819D02*
X122285714Y-73554819D01*
X122285714Y-73554819D02*
X122238095Y-74031009D01*
X122238095Y-74031009D02*
X122285714Y-73983390D01*
X122285714Y-73983390D02*
X122380952Y-73935771D01*
X122380952Y-73935771D02*
X122619047Y-73935771D01*
X122619047Y-73935771D02*
X122714285Y-73983390D01*
X122714285Y-73983390D02*
X122761904Y-74031009D01*
X122761904Y-74031009D02*
X122809523Y-74126247D01*
X122809523Y-74126247D02*
X122809523Y-74364342D01*
X122809523Y-74364342D02*
X122761904Y-74459580D01*
X122761904Y-74459580D02*
X122714285Y-74507200D01*
X122714285Y-74507200D02*
X122619047Y-74554819D01*
X122619047Y-74554819D02*
X122380952Y-74554819D01*
X122380952Y-74554819D02*
X122285714Y-74507200D01*
X122285714Y-74507200D02*
X122238095Y-74459580D01*
X121704761Y-65250057D02*
X121609523Y-65202438D01*
X121609523Y-65202438D02*
X121514285Y-65107200D01*
X121514285Y-65107200D02*
X121371428Y-64964342D01*
X121371428Y-64964342D02*
X121276190Y-64916723D01*
X121276190Y-64916723D02*
X121180952Y-64916723D01*
X121228571Y-65154819D02*
X121133333Y-65107200D01*
X121133333Y-65107200D02*
X121038095Y-65011961D01*
X121038095Y-65011961D02*
X120990476Y-64821485D01*
X120990476Y-64821485D02*
X120990476Y-64488152D01*
X120990476Y-64488152D02*
X121038095Y-64297676D01*
X121038095Y-64297676D02*
X121133333Y-64202438D01*
X121133333Y-64202438D02*
X121228571Y-64154819D01*
X121228571Y-64154819D02*
X121419047Y-64154819D01*
X121419047Y-64154819D02*
X121514285Y-64202438D01*
X121514285Y-64202438D02*
X121609523Y-64297676D01*
X121609523Y-64297676D02*
X121657142Y-64488152D01*
X121657142Y-64488152D02*
X121657142Y-64821485D01*
X121657142Y-64821485D02*
X121609523Y-65011961D01*
X121609523Y-65011961D02*
X121514285Y-65107200D01*
X121514285Y-65107200D02*
X121419047Y-65154819D01*
X121419047Y-65154819D02*
X121228571Y-65154819D01*
X122514285Y-64488152D02*
X122514285Y-65154819D01*
X122276190Y-64107200D02*
X122038095Y-64821485D01*
X122038095Y-64821485D02*
X122657142Y-64821485D01*
X102954761Y-74250057D02*
X102859523Y-74202438D01*
X102859523Y-74202438D02*
X102764285Y-74107200D01*
X102764285Y-74107200D02*
X102621428Y-73964342D01*
X102621428Y-73964342D02*
X102526190Y-73916723D01*
X102526190Y-73916723D02*
X102430952Y-73916723D01*
X102478571Y-74154819D02*
X102383333Y-74107200D01*
X102383333Y-74107200D02*
X102288095Y-74011961D01*
X102288095Y-74011961D02*
X102240476Y-73821485D01*
X102240476Y-73821485D02*
X102240476Y-73488152D01*
X102240476Y-73488152D02*
X102288095Y-73297676D01*
X102288095Y-73297676D02*
X102383333Y-73202438D01*
X102383333Y-73202438D02*
X102478571Y-73154819D01*
X102478571Y-73154819D02*
X102669047Y-73154819D01*
X102669047Y-73154819D02*
X102764285Y-73202438D01*
X102764285Y-73202438D02*
X102859523Y-73297676D01*
X102859523Y-73297676D02*
X102907142Y-73488152D01*
X102907142Y-73488152D02*
X102907142Y-73821485D01*
X102907142Y-73821485D02*
X102859523Y-74011961D01*
X102859523Y-74011961D02*
X102764285Y-74107200D01*
X102764285Y-74107200D02*
X102669047Y-74154819D01*
X102669047Y-74154819D02*
X102478571Y-74154819D01*
X103240476Y-73154819D02*
X103859523Y-73154819D01*
X103859523Y-73154819D02*
X103526190Y-73535771D01*
X103526190Y-73535771D02*
X103669047Y-73535771D01*
X103669047Y-73535771D02*
X103764285Y-73583390D01*
X103764285Y-73583390D02*
X103811904Y-73631009D01*
X103811904Y-73631009D02*
X103859523Y-73726247D01*
X103859523Y-73726247D02*
X103859523Y-73964342D01*
X103859523Y-73964342D02*
X103811904Y-74059580D01*
X103811904Y-74059580D02*
X103764285Y-74107200D01*
X103764285Y-74107200D02*
X103669047Y-74154819D01*
X103669047Y-74154819D02*
X103383333Y-74154819D01*
X103383333Y-74154819D02*
X103288095Y-74107200D01*
X103288095Y-74107200D02*
X103240476Y-74059580D01*
X103104761Y-64650057D02*
X103009523Y-64602438D01*
X103009523Y-64602438D02*
X102914285Y-64507200D01*
X102914285Y-64507200D02*
X102771428Y-64364342D01*
X102771428Y-64364342D02*
X102676190Y-64316723D01*
X102676190Y-64316723D02*
X102580952Y-64316723D01*
X102628571Y-64554819D02*
X102533333Y-64507200D01*
X102533333Y-64507200D02*
X102438095Y-64411961D01*
X102438095Y-64411961D02*
X102390476Y-64221485D01*
X102390476Y-64221485D02*
X102390476Y-63888152D01*
X102390476Y-63888152D02*
X102438095Y-63697676D01*
X102438095Y-63697676D02*
X102533333Y-63602438D01*
X102533333Y-63602438D02*
X102628571Y-63554819D01*
X102628571Y-63554819D02*
X102819047Y-63554819D01*
X102819047Y-63554819D02*
X102914285Y-63602438D01*
X102914285Y-63602438D02*
X103009523Y-63697676D01*
X103009523Y-63697676D02*
X103057142Y-63888152D01*
X103057142Y-63888152D02*
X103057142Y-64221485D01*
X103057142Y-64221485D02*
X103009523Y-64411961D01*
X103009523Y-64411961D02*
X102914285Y-64507200D01*
X102914285Y-64507200D02*
X102819047Y-64554819D01*
X102819047Y-64554819D02*
X102628571Y-64554819D01*
X103438095Y-63650057D02*
X103485714Y-63602438D01*
X103485714Y-63602438D02*
X103580952Y-63554819D01*
X103580952Y-63554819D02*
X103819047Y-63554819D01*
X103819047Y-63554819D02*
X103914285Y-63602438D01*
X103914285Y-63602438D02*
X103961904Y-63650057D01*
X103961904Y-63650057D02*
X104009523Y-63745295D01*
X104009523Y-63745295D02*
X104009523Y-63840533D01*
X104009523Y-63840533D02*
X103961904Y-63983390D01*
X103961904Y-63983390D02*
X103390476Y-64554819D01*
X103390476Y-64554819D02*
X104009523Y-64554819D01*
X141434819Y-73308333D02*
X142149104Y-73308333D01*
X142149104Y-73308333D02*
X142291961Y-73355952D01*
X142291961Y-73355952D02*
X142387200Y-73451190D01*
X142387200Y-73451190D02*
X142434819Y-73594047D01*
X142434819Y-73594047D02*
X142434819Y-73689285D01*
X141434819Y-72355952D02*
X141434819Y-72832142D01*
X141434819Y-72832142D02*
X141911009Y-72879761D01*
X141911009Y-72879761D02*
X141863390Y-72832142D01*
X141863390Y-72832142D02*
X141815771Y-72736904D01*
X141815771Y-72736904D02*
X141815771Y-72498809D01*
X141815771Y-72498809D02*
X141863390Y-72403571D01*
X141863390Y-72403571D02*
X141911009Y-72355952D01*
X141911009Y-72355952D02*
X142006247Y-72308333D01*
X142006247Y-72308333D02*
X142244342Y-72308333D01*
X142244342Y-72308333D02*
X142339580Y-72355952D01*
X142339580Y-72355952D02*
X142387200Y-72403571D01*
X142387200Y-72403571D02*
X142434819Y-72498809D01*
X142434819Y-72498809D02*
X142434819Y-72736904D01*
X142434819Y-72736904D02*
X142387200Y-72832142D01*
X142387200Y-72832142D02*
X142339580Y-72879761D01*
X141634819Y-105508333D02*
X142349104Y-105508333D01*
X142349104Y-105508333D02*
X142491961Y-105555952D01*
X142491961Y-105555952D02*
X142587200Y-105651190D01*
X142587200Y-105651190D02*
X142634819Y-105794047D01*
X142634819Y-105794047D02*
X142634819Y-105889285D01*
X141968152Y-104603571D02*
X142634819Y-104603571D01*
X141587200Y-104841666D02*
X142301485Y-105079761D01*
X142301485Y-105079761D02*
X142301485Y-104460714D01*
X119008333Y-102824819D02*
X118675000Y-102348628D01*
X118436905Y-102824819D02*
X118436905Y-101824819D01*
X118436905Y-101824819D02*
X118817857Y-101824819D01*
X118817857Y-101824819D02*
X118913095Y-101872438D01*
X118913095Y-101872438D02*
X118960714Y-101920057D01*
X118960714Y-101920057D02*
X119008333Y-102015295D01*
X119008333Y-102015295D02*
X119008333Y-102158152D01*
X119008333Y-102158152D02*
X118960714Y-102253390D01*
X118960714Y-102253390D02*
X118913095Y-102301009D01*
X118913095Y-102301009D02*
X118817857Y-102348628D01*
X118817857Y-102348628D02*
X118436905Y-102348628D01*
X119865476Y-102158152D02*
X119865476Y-102824819D01*
X119627381Y-101777200D02*
X119389286Y-102491485D01*
X119389286Y-102491485D02*
X120008333Y-102491485D01*
X153608333Y-64824819D02*
X153275000Y-64348628D01*
X153036905Y-64824819D02*
X153036905Y-63824819D01*
X153036905Y-63824819D02*
X153417857Y-63824819D01*
X153417857Y-63824819D02*
X153513095Y-63872438D01*
X153513095Y-63872438D02*
X153560714Y-63920057D01*
X153560714Y-63920057D02*
X153608333Y-64015295D01*
X153608333Y-64015295D02*
X153608333Y-64158152D01*
X153608333Y-64158152D02*
X153560714Y-64253390D01*
X153560714Y-64253390D02*
X153513095Y-64301009D01*
X153513095Y-64301009D02*
X153417857Y-64348628D01*
X153417857Y-64348628D02*
X153036905Y-64348628D01*
X153941667Y-63824819D02*
X154608333Y-63824819D01*
X154608333Y-63824819D02*
X154179762Y-64824819D01*
X93491666Y-67434819D02*
X93491666Y-68149104D01*
X93491666Y-68149104D02*
X93444047Y-68291961D01*
X93444047Y-68291961D02*
X93348809Y-68387200D01*
X93348809Y-68387200D02*
X93205952Y-68434819D01*
X93205952Y-68434819D02*
X93110714Y-68434819D01*
X93920238Y-67530057D02*
X93967857Y-67482438D01*
X93967857Y-67482438D02*
X94063095Y-67434819D01*
X94063095Y-67434819D02*
X94301190Y-67434819D01*
X94301190Y-67434819D02*
X94396428Y-67482438D01*
X94396428Y-67482438D02*
X94444047Y-67530057D01*
X94444047Y-67530057D02*
X94491666Y-67625295D01*
X94491666Y-67625295D02*
X94491666Y-67720533D01*
X94491666Y-67720533D02*
X94444047Y-67863390D01*
X94444047Y-67863390D02*
X93872619Y-68434819D01*
X93872619Y-68434819D02*
X94491666Y-68434819D01*
X106934819Y-105108333D02*
X107649104Y-105108333D01*
X107649104Y-105108333D02*
X107791961Y-105155952D01*
X107791961Y-105155952D02*
X107887200Y-105251190D01*
X107887200Y-105251190D02*
X107934819Y-105394047D01*
X107934819Y-105394047D02*
X107934819Y-105489285D01*
X107934819Y-104108333D02*
X107934819Y-104679761D01*
X107934819Y-104394047D02*
X106934819Y-104394047D01*
X106934819Y-104394047D02*
X107077676Y-104489285D01*
X107077676Y-104489285D02*
X107172914Y-104584523D01*
X107172914Y-104584523D02*
X107220533Y-104679761D01*
X103608333Y-102824819D02*
X103275000Y-102348628D01*
X103036905Y-102824819D02*
X103036905Y-101824819D01*
X103036905Y-101824819D02*
X103417857Y-101824819D01*
X103417857Y-101824819D02*
X103513095Y-101872438D01*
X103513095Y-101872438D02*
X103560714Y-101920057D01*
X103560714Y-101920057D02*
X103608333Y-102015295D01*
X103608333Y-102015295D02*
X103608333Y-102158152D01*
X103608333Y-102158152D02*
X103560714Y-102253390D01*
X103560714Y-102253390D02*
X103513095Y-102301009D01*
X103513095Y-102301009D02*
X103417857Y-102348628D01*
X103417857Y-102348628D02*
X103036905Y-102348628D01*
X104560714Y-102824819D02*
X103989286Y-102824819D01*
X104275000Y-102824819D02*
X104275000Y-101824819D01*
X104275000Y-101824819D02*
X104179762Y-101967676D01*
X104179762Y-101967676D02*
X104084524Y-102062914D01*
X104084524Y-102062914D02*
X103989286Y-102110533D01*
X153088571Y-84730057D02*
X152993333Y-84682438D01*
X152993333Y-84682438D02*
X152898095Y-84587200D01*
X152898095Y-84587200D02*
X152755238Y-84444342D01*
X152755238Y-84444342D02*
X152660000Y-84396723D01*
X152660000Y-84396723D02*
X152564762Y-84396723D01*
X152612381Y-84634819D02*
X152517143Y-84587200D01*
X152517143Y-84587200D02*
X152421905Y-84491961D01*
X152421905Y-84491961D02*
X152374286Y-84301485D01*
X152374286Y-84301485D02*
X152374286Y-83968152D01*
X152374286Y-83968152D02*
X152421905Y-83777676D01*
X152421905Y-83777676D02*
X152517143Y-83682438D01*
X152517143Y-83682438D02*
X152612381Y-83634819D01*
X152612381Y-83634819D02*
X152802857Y-83634819D01*
X152802857Y-83634819D02*
X152898095Y-83682438D01*
X152898095Y-83682438D02*
X152993333Y-83777676D01*
X152993333Y-83777676D02*
X153040952Y-83968152D01*
X153040952Y-83968152D02*
X153040952Y-84301485D01*
X153040952Y-84301485D02*
X152993333Y-84491961D01*
X152993333Y-84491961D02*
X152898095Y-84587200D01*
X152898095Y-84587200D02*
X152802857Y-84634819D01*
X152802857Y-84634819D02*
X152612381Y-84634819D01*
X153993333Y-84634819D02*
X153421905Y-84634819D01*
X153707619Y-84634819D02*
X153707619Y-83634819D01*
X153707619Y-83634819D02*
X153612381Y-83777676D01*
X153612381Y-83777676D02*
X153517143Y-83872914D01*
X153517143Y-83872914D02*
X153421905Y-83920533D01*
X154374286Y-83730057D02*
X154421905Y-83682438D01*
X154421905Y-83682438D02*
X154517143Y-83634819D01*
X154517143Y-83634819D02*
X154755238Y-83634819D01*
X154755238Y-83634819D02*
X154850476Y-83682438D01*
X154850476Y-83682438D02*
X154898095Y-83730057D01*
X154898095Y-83730057D02*
X154945714Y-83825295D01*
X154945714Y-83825295D02*
X154945714Y-83920533D01*
X154945714Y-83920533D02*
X154898095Y-84063390D01*
X154898095Y-84063390D02*
X154326667Y-84634819D01*
X154326667Y-84634819D02*
X154945714Y-84634819D01*
X138103333Y-97884819D02*
X137770000Y-97408628D01*
X137531905Y-97884819D02*
X137531905Y-96884819D01*
X137531905Y-96884819D02*
X137912857Y-96884819D01*
X137912857Y-96884819D02*
X138008095Y-96932438D01*
X138008095Y-96932438D02*
X138055714Y-96980057D01*
X138055714Y-96980057D02*
X138103333Y-97075295D01*
X138103333Y-97075295D02*
X138103333Y-97218152D01*
X138103333Y-97218152D02*
X138055714Y-97313390D01*
X138055714Y-97313390D02*
X138008095Y-97361009D01*
X138008095Y-97361009D02*
X137912857Y-97408628D01*
X137912857Y-97408628D02*
X137531905Y-97408628D01*
X139008095Y-96884819D02*
X138531905Y-96884819D01*
X138531905Y-96884819D02*
X138484286Y-97361009D01*
X138484286Y-97361009D02*
X138531905Y-97313390D01*
X138531905Y-97313390D02*
X138627143Y-97265771D01*
X138627143Y-97265771D02*
X138865238Y-97265771D01*
X138865238Y-97265771D02*
X138960476Y-97313390D01*
X138960476Y-97313390D02*
X139008095Y-97361009D01*
X139008095Y-97361009D02*
X139055714Y-97456247D01*
X139055714Y-97456247D02*
X139055714Y-97694342D01*
X139055714Y-97694342D02*
X139008095Y-97789580D01*
X139008095Y-97789580D02*
X138960476Y-97837200D01*
X138960476Y-97837200D02*
X138865238Y-97884819D01*
X138865238Y-97884819D02*
X138627143Y-97884819D01*
X138627143Y-97884819D02*
X138531905Y-97837200D01*
X138531905Y-97837200D02*
X138484286Y-97789580D01*
X103563333Y-64824819D02*
X103230000Y-64348628D01*
X102991905Y-64824819D02*
X102991905Y-63824819D01*
X102991905Y-63824819D02*
X103372857Y-63824819D01*
X103372857Y-63824819D02*
X103468095Y-63872438D01*
X103468095Y-63872438D02*
X103515714Y-63920057D01*
X103515714Y-63920057D02*
X103563333Y-64015295D01*
X103563333Y-64015295D02*
X103563333Y-64158152D01*
X103563333Y-64158152D02*
X103515714Y-64253390D01*
X103515714Y-64253390D02*
X103468095Y-64301009D01*
X103468095Y-64301009D02*
X103372857Y-64348628D01*
X103372857Y-64348628D02*
X102991905Y-64348628D01*
X103944286Y-63920057D02*
X103991905Y-63872438D01*
X103991905Y-63872438D02*
X104087143Y-63824819D01*
X104087143Y-63824819D02*
X104325238Y-63824819D01*
X104325238Y-63824819D02*
X104420476Y-63872438D01*
X104420476Y-63872438D02*
X104468095Y-63920057D01*
X104468095Y-63920057D02*
X104515714Y-64015295D01*
X104515714Y-64015295D02*
X104515714Y-64110533D01*
X104515714Y-64110533D02*
X104468095Y-64253390D01*
X104468095Y-64253390D02*
X103896667Y-64824819D01*
X103896667Y-64824819D02*
X104515714Y-64824819D01*
X103104761Y-84990057D02*
X103009523Y-84942438D01*
X103009523Y-84942438D02*
X102914285Y-84847200D01*
X102914285Y-84847200D02*
X102771428Y-84704342D01*
X102771428Y-84704342D02*
X102676190Y-84656723D01*
X102676190Y-84656723D02*
X102580952Y-84656723D01*
X102628571Y-84894819D02*
X102533333Y-84847200D01*
X102533333Y-84847200D02*
X102438095Y-84751961D01*
X102438095Y-84751961D02*
X102390476Y-84561485D01*
X102390476Y-84561485D02*
X102390476Y-84228152D01*
X102390476Y-84228152D02*
X102438095Y-84037676D01*
X102438095Y-84037676D02*
X102533333Y-83942438D01*
X102533333Y-83942438D02*
X102628571Y-83894819D01*
X102628571Y-83894819D02*
X102819047Y-83894819D01*
X102819047Y-83894819D02*
X102914285Y-83942438D01*
X102914285Y-83942438D02*
X103009523Y-84037676D01*
X103009523Y-84037676D02*
X103057142Y-84228152D01*
X103057142Y-84228152D02*
X103057142Y-84561485D01*
X103057142Y-84561485D02*
X103009523Y-84751961D01*
X103009523Y-84751961D02*
X102914285Y-84847200D01*
X102914285Y-84847200D02*
X102819047Y-84894819D01*
X102819047Y-84894819D02*
X102628571Y-84894819D01*
X104009523Y-84894819D02*
X103438095Y-84894819D01*
X103723809Y-84894819D02*
X103723809Y-83894819D01*
X103723809Y-83894819D02*
X103628571Y-84037676D01*
X103628571Y-84037676D02*
X103533333Y-84132914D01*
X103533333Y-84132914D02*
X103438095Y-84180533D01*
X136504761Y-84790057D02*
X136409523Y-84742438D01*
X136409523Y-84742438D02*
X136314285Y-84647200D01*
X136314285Y-84647200D02*
X136171428Y-84504342D01*
X136171428Y-84504342D02*
X136076190Y-84456723D01*
X136076190Y-84456723D02*
X135980952Y-84456723D01*
X136028571Y-84694819D02*
X135933333Y-84647200D01*
X135933333Y-84647200D02*
X135838095Y-84551961D01*
X135838095Y-84551961D02*
X135790476Y-84361485D01*
X135790476Y-84361485D02*
X135790476Y-84028152D01*
X135790476Y-84028152D02*
X135838095Y-83837676D01*
X135838095Y-83837676D02*
X135933333Y-83742438D01*
X135933333Y-83742438D02*
X136028571Y-83694819D01*
X136028571Y-83694819D02*
X136219047Y-83694819D01*
X136219047Y-83694819D02*
X136314285Y-83742438D01*
X136314285Y-83742438D02*
X136409523Y-83837676D01*
X136409523Y-83837676D02*
X136457142Y-84028152D01*
X136457142Y-84028152D02*
X136457142Y-84361485D01*
X136457142Y-84361485D02*
X136409523Y-84551961D01*
X136409523Y-84551961D02*
X136314285Y-84647200D01*
X136314285Y-84647200D02*
X136219047Y-84694819D01*
X136219047Y-84694819D02*
X136028571Y-84694819D01*
X136790476Y-83694819D02*
X137457142Y-83694819D01*
X137457142Y-83694819D02*
X137028571Y-84694819D01*
X121364761Y-85130057D02*
X121269523Y-85082438D01*
X121269523Y-85082438D02*
X121174285Y-84987200D01*
X121174285Y-84987200D02*
X121031428Y-84844342D01*
X121031428Y-84844342D02*
X120936190Y-84796723D01*
X120936190Y-84796723D02*
X120840952Y-84796723D01*
X120888571Y-85034819D02*
X120793333Y-84987200D01*
X120793333Y-84987200D02*
X120698095Y-84891961D01*
X120698095Y-84891961D02*
X120650476Y-84701485D01*
X120650476Y-84701485D02*
X120650476Y-84368152D01*
X120650476Y-84368152D02*
X120698095Y-84177676D01*
X120698095Y-84177676D02*
X120793333Y-84082438D01*
X120793333Y-84082438D02*
X120888571Y-84034819D01*
X120888571Y-84034819D02*
X121079047Y-84034819D01*
X121079047Y-84034819D02*
X121174285Y-84082438D01*
X121174285Y-84082438D02*
X121269523Y-84177676D01*
X121269523Y-84177676D02*
X121317142Y-84368152D01*
X121317142Y-84368152D02*
X121317142Y-84701485D01*
X121317142Y-84701485D02*
X121269523Y-84891961D01*
X121269523Y-84891961D02*
X121174285Y-84987200D01*
X121174285Y-84987200D02*
X121079047Y-85034819D01*
X121079047Y-85034819D02*
X120888571Y-85034819D01*
X122174285Y-84034819D02*
X121983809Y-84034819D01*
X121983809Y-84034819D02*
X121888571Y-84082438D01*
X121888571Y-84082438D02*
X121840952Y-84130057D01*
X121840952Y-84130057D02*
X121745714Y-84272914D01*
X121745714Y-84272914D02*
X121698095Y-84463390D01*
X121698095Y-84463390D02*
X121698095Y-84844342D01*
X121698095Y-84844342D02*
X121745714Y-84939580D01*
X121745714Y-84939580D02*
X121793333Y-84987200D01*
X121793333Y-84987200D02*
X121888571Y-85034819D01*
X121888571Y-85034819D02*
X122079047Y-85034819D01*
X122079047Y-85034819D02*
X122174285Y-84987200D01*
X122174285Y-84987200D02*
X122221904Y-84939580D01*
X122221904Y-84939580D02*
X122269523Y-84844342D01*
X122269523Y-84844342D02*
X122269523Y-84606247D01*
X122269523Y-84606247D02*
X122221904Y-84511009D01*
X122221904Y-84511009D02*
X122174285Y-84463390D01*
X122174285Y-84463390D02*
X122079047Y-84415771D01*
X122079047Y-84415771D02*
X121888571Y-84415771D01*
X121888571Y-84415771D02*
X121793333Y-84463390D01*
X121793333Y-84463390D02*
X121745714Y-84511009D01*
X121745714Y-84511009D02*
X121698095Y-84606247D01*
X136103333Y-64424819D02*
X135770000Y-63948628D01*
X135531905Y-64424819D02*
X135531905Y-63424819D01*
X135531905Y-63424819D02*
X135912857Y-63424819D01*
X135912857Y-63424819D02*
X136008095Y-63472438D01*
X136008095Y-63472438D02*
X136055714Y-63520057D01*
X136055714Y-63520057D02*
X136103333Y-63615295D01*
X136103333Y-63615295D02*
X136103333Y-63758152D01*
X136103333Y-63758152D02*
X136055714Y-63853390D01*
X136055714Y-63853390D02*
X136008095Y-63901009D01*
X136008095Y-63901009D02*
X135912857Y-63948628D01*
X135912857Y-63948628D02*
X135531905Y-63948628D01*
X136960476Y-63424819D02*
X136770000Y-63424819D01*
X136770000Y-63424819D02*
X136674762Y-63472438D01*
X136674762Y-63472438D02*
X136627143Y-63520057D01*
X136627143Y-63520057D02*
X136531905Y-63662914D01*
X136531905Y-63662914D02*
X136484286Y-63853390D01*
X136484286Y-63853390D02*
X136484286Y-64234342D01*
X136484286Y-64234342D02*
X136531905Y-64329580D01*
X136531905Y-64329580D02*
X136579524Y-64377200D01*
X136579524Y-64377200D02*
X136674762Y-64424819D01*
X136674762Y-64424819D02*
X136865238Y-64424819D01*
X136865238Y-64424819D02*
X136960476Y-64377200D01*
X136960476Y-64377200D02*
X137008095Y-64329580D01*
X137008095Y-64329580D02*
X137055714Y-64234342D01*
X137055714Y-64234342D02*
X137055714Y-63996247D01*
X137055714Y-63996247D02*
X137008095Y-63901009D01*
X137008095Y-63901009D02*
X136960476Y-63853390D01*
X136960476Y-63853390D02*
X136865238Y-63805771D01*
X136865238Y-63805771D02*
X136674762Y-63805771D01*
X136674762Y-63805771D02*
X136579524Y-63853390D01*
X136579524Y-63853390D02*
X136531905Y-63901009D01*
X136531905Y-63901009D02*
X136484286Y-63996247D01*
X107684819Y-73833333D02*
X108399104Y-73833333D01*
X108399104Y-73833333D02*
X108541961Y-73880952D01*
X108541961Y-73880952D02*
X108637200Y-73976190D01*
X108637200Y-73976190D02*
X108684819Y-74119047D01*
X108684819Y-74119047D02*
X108684819Y-74214285D01*
X107684819Y-73452380D02*
X107684819Y-72833333D01*
X107684819Y-72833333D02*
X108065771Y-73166666D01*
X108065771Y-73166666D02*
X108065771Y-73023809D01*
X108065771Y-73023809D02*
X108113390Y-72928571D01*
X108113390Y-72928571D02*
X108161009Y-72880952D01*
X108161009Y-72880952D02*
X108256247Y-72833333D01*
X108256247Y-72833333D02*
X108494342Y-72833333D01*
X108494342Y-72833333D02*
X108589580Y-72880952D01*
X108589580Y-72880952D02*
X108637200Y-72928571D01*
X108637200Y-72928571D02*
X108684819Y-73023809D01*
X108684819Y-73023809D02*
X108684819Y-73309523D01*
X108684819Y-73309523D02*
X108637200Y-73404761D01*
X108637200Y-73404761D02*
X108589580Y-73452380D01*
X154163333Y-98084819D02*
X153830000Y-97608628D01*
X153591905Y-98084819D02*
X153591905Y-97084819D01*
X153591905Y-97084819D02*
X153972857Y-97084819D01*
X153972857Y-97084819D02*
X154068095Y-97132438D01*
X154068095Y-97132438D02*
X154115714Y-97180057D01*
X154115714Y-97180057D02*
X154163333Y-97275295D01*
X154163333Y-97275295D02*
X154163333Y-97418152D01*
X154163333Y-97418152D02*
X154115714Y-97513390D01*
X154115714Y-97513390D02*
X154068095Y-97561009D01*
X154068095Y-97561009D02*
X153972857Y-97608628D01*
X153972857Y-97608628D02*
X153591905Y-97608628D01*
X154734762Y-97513390D02*
X154639524Y-97465771D01*
X154639524Y-97465771D02*
X154591905Y-97418152D01*
X154591905Y-97418152D02*
X154544286Y-97322914D01*
X154544286Y-97322914D02*
X154544286Y-97275295D01*
X154544286Y-97275295D02*
X154591905Y-97180057D01*
X154591905Y-97180057D02*
X154639524Y-97132438D01*
X154639524Y-97132438D02*
X154734762Y-97084819D01*
X154734762Y-97084819D02*
X154925238Y-97084819D01*
X154925238Y-97084819D02*
X155020476Y-97132438D01*
X155020476Y-97132438D02*
X155068095Y-97180057D01*
X155068095Y-97180057D02*
X155115714Y-97275295D01*
X155115714Y-97275295D02*
X155115714Y-97322914D01*
X155115714Y-97322914D02*
X155068095Y-97418152D01*
X155068095Y-97418152D02*
X155020476Y-97465771D01*
X155020476Y-97465771D02*
X154925238Y-97513390D01*
X154925238Y-97513390D02*
X154734762Y-97513390D01*
X154734762Y-97513390D02*
X154639524Y-97561009D01*
X154639524Y-97561009D02*
X154591905Y-97608628D01*
X154591905Y-97608628D02*
X154544286Y-97703866D01*
X154544286Y-97703866D02*
X154544286Y-97894342D01*
X154544286Y-97894342D02*
X154591905Y-97989580D01*
X154591905Y-97989580D02*
X154639524Y-98037200D01*
X154639524Y-98037200D02*
X154734762Y-98084819D01*
X154734762Y-98084819D02*
X154925238Y-98084819D01*
X154925238Y-98084819D02*
X155020476Y-98037200D01*
X155020476Y-98037200D02*
X155068095Y-97989580D01*
X155068095Y-97989580D02*
X155115714Y-97894342D01*
X155115714Y-97894342D02*
X155115714Y-97703866D01*
X155115714Y-97703866D02*
X155068095Y-97608628D01*
X155068095Y-97608628D02*
X155020476Y-97561009D01*
X155020476Y-97561009D02*
X154925238Y-97513390D01*
D11*
%TO.C,Q10*%
X153400000Y-65790000D02*
X157160000Y-65790000D01*
X153400000Y-72610000D02*
X157160000Y-72610000D01*
X157160000Y-65790000D02*
X157160000Y-67050000D01*
X157160000Y-72610000D02*
X157160000Y-71350000D01*
X152120000Y-65890000D02*
X151880000Y-65560000D01*
X152360000Y-65560000D01*
X152120000Y-65890000D01*
G36*
X152120000Y-65890000D02*
G01*
X151880000Y-65560000D01*
X152360000Y-65560000D01*
X152120000Y-65890000D01*
G37*
%TO.C,Q11*%
X153150000Y-75390000D02*
X156910000Y-75390000D01*
X153150000Y-82210000D02*
X156910000Y-82210000D01*
X156910000Y-75390000D02*
X156910000Y-76650000D01*
X156910000Y-82210000D02*
X156910000Y-80950000D01*
X151870000Y-75490000D02*
X151630000Y-75160000D01*
X152110000Y-75160000D01*
X151870000Y-75490000D01*
G36*
X151870000Y-75490000D02*
G01*
X151630000Y-75160000D01*
X152110000Y-75160000D01*
X151870000Y-75490000D01*
G37*
%TO.C,Q9*%
X134400000Y-75190000D02*
X138160000Y-75190000D01*
X134400000Y-82010000D02*
X138160000Y-82010000D01*
X138160000Y-75190000D02*
X138160000Y-76450000D01*
X138160000Y-82010000D02*
X138160000Y-80750000D01*
X133120000Y-75290000D02*
X132880000Y-74960000D01*
X133360000Y-74960000D01*
X133120000Y-75290000D01*
G36*
X133120000Y-75290000D02*
G01*
X132880000Y-74960000D01*
X133360000Y-74960000D01*
X133120000Y-75290000D01*
G37*
%TO.C,Q8*%
X134150000Y-65790000D02*
X137910000Y-65790000D01*
X134150000Y-72610000D02*
X137910000Y-72610000D01*
X137910000Y-65790000D02*
X137910000Y-67050000D01*
X137910000Y-72610000D02*
X137910000Y-71350000D01*
X132870000Y-65890000D02*
X132630000Y-65560000D01*
X133110000Y-65560000D01*
X132870000Y-65890000D01*
G36*
X132870000Y-65890000D02*
G01*
X132630000Y-65560000D01*
X133110000Y-65560000D01*
X132870000Y-65890000D01*
G37*
%TO.C,Q5*%
X120150000Y-75190000D02*
X123910000Y-75190000D01*
X120150000Y-82010000D02*
X123910000Y-82010000D01*
X123910000Y-75190000D02*
X123910000Y-76450000D01*
X123910000Y-82010000D02*
X123910000Y-80750000D01*
X118870000Y-75290000D02*
X118630000Y-74960000D01*
X119110000Y-74960000D01*
X118870000Y-75290000D01*
G36*
X118870000Y-75290000D02*
G01*
X118630000Y-74960000D01*
X119110000Y-74960000D01*
X118870000Y-75290000D01*
G37*
%TO.C,Q4*%
X119950000Y-65790000D02*
X123710000Y-65790000D01*
X119950000Y-72610000D02*
X123710000Y-72610000D01*
X123710000Y-65790000D02*
X123710000Y-67050000D01*
X123710000Y-72610000D02*
X123710000Y-71350000D01*
X118670000Y-65890000D02*
X118430000Y-65560000D01*
X118910000Y-65560000D01*
X118670000Y-65890000D01*
G36*
X118670000Y-65890000D02*
G01*
X118430000Y-65560000D01*
X118910000Y-65560000D01*
X118670000Y-65890000D01*
G37*
%TO.C,Q3*%
X101200000Y-74790000D02*
X104960000Y-74790000D01*
X101200000Y-81610000D02*
X104960000Y-81610000D01*
X104960000Y-74790000D02*
X104960000Y-76050000D01*
X104960000Y-81610000D02*
X104960000Y-80350000D01*
X99920000Y-74890000D02*
X99680000Y-74560000D01*
X100160000Y-74560000D01*
X99920000Y-74890000D01*
G36*
X99920000Y-74890000D02*
G01*
X99680000Y-74560000D01*
X100160000Y-74560000D01*
X99920000Y-74890000D01*
G37*
%TO.C,Q2*%
X101350000Y-65190000D02*
X105110000Y-65190000D01*
X101350000Y-72010000D02*
X105110000Y-72010000D01*
X105110000Y-65190000D02*
X105110000Y-66450000D01*
X105110000Y-72010000D02*
X105110000Y-70750000D01*
X100070000Y-65290000D02*
X99830000Y-64960000D01*
X100310000Y-64960000D01*
X100070000Y-65290000D01*
G36*
X100070000Y-65290000D02*
G01*
X99830000Y-64960000D01*
X100310000Y-64960000D01*
X100070000Y-65290000D01*
G37*
%TO.C,J5*%
X143420000Y-71645000D02*
X144750000Y-71645000D01*
X143420000Y-72975000D02*
X143420000Y-71645000D01*
X146020000Y-71645000D02*
X148620000Y-71645000D01*
X146020000Y-74305000D02*
X146020000Y-71645000D01*
X146020000Y-74305000D02*
X148620000Y-74305000D01*
X148620000Y-74305000D02*
X148620000Y-71645000D01*
%TO.C,J4*%
X143620000Y-103845000D02*
X144950000Y-103845000D01*
X143620000Y-105175000D02*
X143620000Y-103845000D01*
X146220000Y-103845000D02*
X148820000Y-103845000D01*
X146220000Y-106505000D02*
X146220000Y-103845000D01*
X146220000Y-106505000D02*
X148820000Y-106505000D01*
X148820000Y-106505000D02*
X148820000Y-103845000D01*
%TO.C,R4*%
X119075000Y-100000000D02*
X119005000Y-100000000D01*
X121815000Y-100000000D02*
G75*
G02*
X119075000Y-100000000I-1370000J0D01*
G01*
X119075000Y-100000000D02*
G75*
G02*
X121815000Y-100000000I1370000J0D01*
G01*
%TO.C,R7*%
X153675000Y-62000000D02*
X153605000Y-62000000D01*
X156415000Y-62000000D02*
G75*
G02*
X153675000Y-62000000I-1370000J0D01*
G01*
X153675000Y-62000000D02*
G75*
G02*
X156415000Y-62000000I1370000J0D01*
G01*
%TO.C,J2*%
X92495000Y-72020000D02*
X92495000Y-74620000D01*
X92495000Y-72020000D02*
X95155000Y-72020000D01*
X92495000Y-74620000D02*
X95155000Y-74620000D01*
X93825000Y-69420000D02*
X95155000Y-69420000D01*
X95155000Y-69420000D02*
X95155000Y-70750000D01*
X95155000Y-72020000D02*
X95155000Y-74620000D01*
%TO.C,J1*%
X108920000Y-103445000D02*
X110250000Y-103445000D01*
X108920000Y-104775000D02*
X108920000Y-103445000D01*
X111520000Y-103445000D02*
X114120000Y-103445000D01*
X111520000Y-106105000D02*
X111520000Y-103445000D01*
X111520000Y-106105000D02*
X114120000Y-106105000D01*
X114120000Y-106105000D02*
X114120000Y-103445000D01*
%TO.C,R1*%
X103675000Y-100000000D02*
X103605000Y-100000000D01*
X106415000Y-100000000D02*
G75*
G02*
X103675000Y-100000000I-1370000J0D01*
G01*
X103675000Y-100000000D02*
G75*
G02*
X106415000Y-100000000I1370000J0D01*
G01*
%TO.C,Q12*%
X148994144Y-86111961D02*
X149885098Y-87002916D01*
X149771961Y-85334144D02*
X148994144Y-86111961D01*
X150662916Y-86225098D02*
X149771961Y-85334144D01*
X150662916Y-86225098D02*
G75*
G02*
X149885326Y-87002629I2997084J-3774902D01*
G01*
%TO.C,R5*%
X138370000Y-99800000D02*
X138440000Y-99800000D01*
X138370000Y-99800000D02*
G75*
G02*
X135630000Y-99800000I-1370000J0D01*
G01*
X135630000Y-99800000D02*
G75*
G02*
X138370000Y-99800000I1370000J0D01*
G01*
%TO.C,R2*%
X103630000Y-62000000D02*
X103560000Y-62000000D01*
X106370000Y-62000000D02*
G75*
G02*
X103630000Y-62000000I-1370000J0D01*
G01*
X103630000Y-62000000D02*
G75*
G02*
X106370000Y-62000000I1370000J0D01*
G01*
%TO.C,Q1*%
X98534144Y-86371961D02*
X99425098Y-87262916D01*
X99311961Y-85594144D02*
X98534144Y-86371961D01*
X100202916Y-86485098D02*
X99311961Y-85594144D01*
X100202916Y-86485098D02*
G75*
G02*
X99425326Y-87262629I2997084J-3774902D01*
G01*
%TO.C,Q7*%
X131934144Y-86171961D02*
X132825098Y-87062916D01*
X132711961Y-85394144D02*
X131934144Y-86171961D01*
X133602916Y-86285098D02*
X132711961Y-85394144D01*
X133602916Y-86285098D02*
G75*
G02*
X132825326Y-87062629I2997084J-3774902D01*
G01*
%TO.C,Q6*%
X116794144Y-86511961D02*
X117685098Y-87402916D01*
X117571961Y-85734144D02*
X116794144Y-86511961D01*
X118462916Y-86625098D02*
X117571961Y-85734144D01*
X118462916Y-86625098D02*
G75*
G02*
X117685326Y-87402629I2997084J-3774902D01*
G01*
%TO.C,R6*%
X136170000Y-61600000D02*
X136100000Y-61600000D01*
X138910000Y-61600000D02*
G75*
G02*
X136170000Y-61600000I-1370000J0D01*
G01*
X136170000Y-61600000D02*
G75*
G02*
X138910000Y-61600000I1370000J0D01*
G01*
%TO.C,R3*%
X120675000Y-62000000D02*
X120605000Y-62000000D01*
X123415000Y-62000000D02*
G75*
G02*
X120675000Y-62000000I-1370000J0D01*
G01*
X120675000Y-62000000D02*
G75*
G02*
X123415000Y-62000000I1370000J0D01*
G01*
%TO.C,J3*%
X109670000Y-72170000D02*
X111000000Y-72170000D01*
X109670000Y-73500000D02*
X109670000Y-72170000D01*
X112270000Y-72170000D02*
X114870000Y-72170000D01*
X112270000Y-74830000D02*
X112270000Y-72170000D01*
X112270000Y-74830000D02*
X114870000Y-74830000D01*
X114870000Y-74830000D02*
X114870000Y-72170000D01*
%TO.C,R8*%
X154430000Y-100000000D02*
X154500000Y-100000000D01*
X154430000Y-100000000D02*
G75*
G02*
X151690000Y-100000000I-1370000J0D01*
G01*
X151690000Y-100000000D02*
G75*
G02*
X154430000Y-100000000I1370000J0D01*
G01*
%TD*%
M02*
